<?xml version="1.0" encoding="UTF-8" standalone="no"?>
<!-- Created with Inkscape (http://www.inkscape.org/) -->

<svg
   width="18.657438mm"
   height="18.274595mm"
   viewBox="0 0 18.657438 18.274595"
   version="1.1"
   id="svg1"
   xmlns="http://www.w3.org/2000/svg"
   xmlns:svg="http://www.w3.org/2000/svg">
  <defs
     id="defs1" />
  <g
     id="layer1"
     transform="translate(-20.770165,-41.527328)">
    <path
       style="fill:#f6fcdf;fill-opacity:1;stroke:#a0c878;stroke-width:0.800156;stroke-dasharray:none;stroke-opacity:1"
       id="path8"
       d="m 36.818219,50.950631 c -1.25358,3.758009 3.530715,4.017485 0.566079,6.645227 -2.964637,2.627741 -2.647891,-2.153105 -6.529212,-1.359732 -3.881322,0.793372 -1.713887,5.066432 -5.471896,3.812852 -3.758009,-1.25358 0.540697,-3.369693 -2.087044,-6.33433 -2.627741,-2.964636 -5.244602,1.048947 -6.037975,-2.832374 -0.793372,-3.881321 3.188589,-1.216589 4.442169,-4.974598 1.25358,-3.758009 -3.530716,-4.017485 -0.566079,-6.645227 2.964636,-2.627741 2.647891,2.153105 6.529212,1.359732 3.881321,-0.793372 1.713887,-5.066432 5.471896,-3.812852 3.758009,1.25358 -0.540698,3.369693 2.087043,6.33433 2.627742,2.964636 5.244603,-1.048947 6.037975,2.832374 0.793373,3.881321 -3.188588,1.216589 -4.442168,4.974598 z"
       transform="matrix(0.74610443,0,0,0.74610443,8.2684076,14.531418)" />
  </g>
</svg>
