<?xml version="1.0" encoding="UTF-8" standalone="no"?>
<!-- Created with Inkscape (http://www.inkscape.org/) -->

<svg
   width="14.944739mm"
   height="14.944735mm"
   viewBox="0 0 14.944739 14.944735"
   version="1.1"
   id="svg1"
   xmlns="http://www.w3.org/2000/svg"
   xmlns:svg="http://www.w3.org/2000/svg">
  <defs
     id="defs1" />
  <g
     id="layer1"
     transform="translate(-42.475514,-35.186648)">
    <path
       style="fill:#ffc555;fill-opacity:1;stroke:#79a1f8;stroke-width:1.11539;stroke-dasharray:none;stroke-opacity:1"
       id="path1"
       d="m 48.788556,51.567243 c -1.572286,0.77042 -2.840512,-2.007484 -4.497055,-2.574489 -1.656543,-0.567004 -4.360995,0.851124 -5.131415,-0.721162 -0.77042,-1.572286 2.007484,-2.840512 2.574489,-4.497055 0.567005,-1.656543 -0.851124,-4.360995 0.721162,-5.131415 1.572286,-0.77042 2.840512,2.007484 4.497055,2.574489 1.656543,0.567005 4.360996,-0.851124 5.131415,0.721162 0.77042,1.572286 -2.007484,2.840512 -2.574489,4.497055 -0.567004,1.656543 0.851124,4.360996 -0.721162,5.131415 z"
       transform="matrix(0.41042097,-0.87203759,0.87203759,0.41042097,-8.1098143,63.931129)" />
  </g>
</svg>
