<?xml version="1.0" encoding="UTF-8" standalone="no"?>
<!-- Created with Inkscape (http://www.inkscape.org/) -->

<svg
   width="19.425783mm"
   height="19.425781mm"
   viewBox="0 0 19.425783 19.425781"
   version="1.1"
   id="svg1"
   xmlns="http://www.w3.org/2000/svg"
   xmlns:svg="http://www.w3.org/2000/svg">
  <defs
     id="defs1" />
  <g
     id="layer1"
     transform="translate(-70.779296,-29.404298)">
    <path
       style="baseline-shift:baseline;display:inline;overflow:visible;opacity:1;vector-effect:none;stroke-linecap:round;stroke-linejoin:round;stroke-miterlimit:2.8;enable-background:accumulate;stop-color:#000000;stop-opacity:1"
       d="m 76.560547,29.404297 c -3.181536,0 -5.78125,2.601666 -5.78125,5.783203 v 3.929687 3.931641 c 0,3.181537 2.599714,5.78125 5.78125,5.78125 h 3.93164 3.929688 c 3.181536,0 5.783203,-2.599713 5.783203,-5.78125 V 39.117187 35.1875 c 0,-3.181537 -2.601667,-5.783203 -5.783203,-5.783203 h -3.929688 z m 0,2.521484 h 2.669922 a 5.931641,5.931641 135 0 1 -5.931641,5.931641 V 35.1875 c 0,-1.828509 1.433211,-3.261719 3.261719,-3.261719 z m 5.191406,0 h 2.669922 c 1.828508,0 3.261719,1.43321 3.261719,3.261719 v 2.669922 a 5.931641,5.931641 45 0 1 -5.931641,-5.931641 z m -8.453125,8.451172 a 5.931641,5.931641 45 0 1 5.931641,5.931641 h -2.669922 c -1.828508,0 -3.261719,-1.431257 -3.261719,-3.259766 z m 14.384766,0 v 2.671875 c 0,1.828509 -1.433211,3.259766 -3.261719,3.259766 h -2.669922 a 5.931641,5.931641 135 0 1 5.931641,-5.931641 z"
       id="path4" />
  </g>
</svg>
